<?xml version="1.0" encoding="UTF-8"?>
<svg version="1.1" xmlns="http://www.w3.org/2000/svg" width="180" height="105">
<path d="M0 0 C0 0.99 0 1.98 0 3 C0.66 3 1.32 3 2 3 C2 3.66 2 4.32 2 5 C2.66 5 3.32 5 4 5 C4 5.99 4 6.98 4 8 C4.66 8 5.32 8 6 8 C6 8.66 6 9.32 6 10 C6.99 10.33 7.98 10.66 9 11 C11.1875 12.9375 11.1875 12.9375 13 15 C13 15.66 13 16.32 13 17 C13.66 17 14.32 17 15 17 C15.495 17.99 15.495 17.99 16 19 C16.515625 19.495 17.03125 19.99 17.5625 20.5 C19 22 19 22 19 24 C19.66 24 20.32 24 21 24 C21 24.99 21 25.98 21 27 C21.66 27 22.32 27 23 27 C23 27.66 23 28.32 23 29 C23.66 29 24.32 29 25 29 C25 29.66 25 30.32 25 31 C25.66 31 26.32 31 27 31 C27.99 33.475 27.99 33.475 29 36 C29.66 36 30.32 36 31 36 C31 36.66 31 37.32 31 38 C31.66 38 32.32 38 33 38 C33 38.99 33 39.98 33 41 C33.66 41 34.32 41 35 41 C35 41.66 35 42.32 35 43 C35.639375 43.268125 36.27875 43.53625 36.9375 43.8125 C39 45 39 45 40 48 C40.66 48 41.32 48 42 48 C42 48.99 42 49.98 42 51 C40.845 50.566875 39.69 50.13375 38.5 49.6875 C26.07772661 45.60506274 13.98478449 44.53379098 1 45 C1 48.3 1 51.6 1 55 C-1.97 55 -4.94 55 -8 55 C-8 51.7 -8 48.4 -8 45 C-16.51278904 44.69065235 -24.71439782 44.84530789 -33.125 46.3125 C-33.82230225 46.43020752 -34.51960449 46.54791504 -35.23803711 46.66918945 C-39.58971152 47.49134189 -43.10338763 48.93606734 -47 51 C-47.66 51 -48.32 51 -49 51 C-48.49259538 46.60249328 -45.91706686 44.13051078 -43 41 C-42.34 41 -41.68 41 -41 41 C-40.67 40.01 -40.34 39.02 -40 38 C-39.34 38 -38.68 38 -38 38 C-38 37.34 -38 36.68 -38 36 C-37.34 36 -36.68 36 -36 36 C-35.34 34.35 -34.68 32.7 -34 31 C-33.34 31 -32.68 31 -32 31 C-32 30.34 -32 29.68 -32 29 C-31.34 29 -30.68 29 -30 29 C-30 28.34 -30 27.68 -30 27 C-29.34 27 -28.68 27 -28 27 C-28 26.01 -28 25.02 -28 24 C-27.34 24 -26.68 24 -26 24 C-26 23.34 -26 22.68 -26 22 C-25.34 22 -24.68 22 -24 22 C-23.67 21.01 -23.34 20.02 -23 19 C-22.67 18.34 -22.34 17.68 -22 17 C-21.34 17 -20.68 17 -20 17 C-19.67 16.01 -19.34 15.02 -19 14 C-17.5625 11.8125 -17.5625 11.8125 -16 10 C-15.34 10 -14.68 10 -14 10 C-14 9.34 -14 8.68 -14 8 C-13.01 8 -12.02 8 -11 8 C-11 7.01 -11 6.02 -11 5 C-10.34 5 -9.68 5 -9 5 C-9 4.34 -9 3.68 -9 3 C-8.34 3 -7.68 3 -7 3 C-7 2.01 -7 1.02 -7 0 C-4.3333581 -1.33332095 -2.83319697 -0.67102033 0 0 Z " fill="#E97E79" transform="translate(114,6)"/>
<path d="M0 0 C1.98 0 3.96 0 6 0 C6.33 3.3 6.66 6.6 7 10 C7.92232422 9.16855469 7.92232422 9.16855469 8.86328125 8.3203125 C9.67152344 7.59585938 10.47976562 6.87140625 11.3125 6.125 C12.11300781 5.40570313 12.91351563 4.68640625 13.73828125 3.9453125 C18.05498708 0.23249816 20.36191819 -0.2127578 26 0 C25.87890625 1.703125 25.87890625 1.703125 25 4 C23.00484099 5.72894698 21.08570336 7.24257501 18.9375 8.75 C18.36966797 9.16121094 17.80183594 9.57242188 17.21679688 9.99609375 C15.81805343 11.00695036 14.40990625 12.00477206 13 13 C13.93137592 14.29608947 14.8703566 15.58671632 15.8125 16.875 C16.33457031 17.59429687 16.85664063 18.31359375 17.39453125 19.0546875 C19.03272777 21.23028655 19.03272777 21.23028655 22 23 C22.29769287 22.45996338 22.59538574 21.91992676 22.90209961 21.36352539 C24.24547302 18.92887423 25.59145055 16.4956726 26.9375 14.0625 C27.40607422 13.21236328 27.87464844 12.36222656 28.35742188 11.48632812 C28.80537109 10.67744141 29.25332031 9.86855469 29.71484375 9.03515625 C30.12855225 8.2862915 30.54226074 7.53742676 30.96850586 6.76586914 C32 5 32 5 33 4 C35.36791992 3.67773438 35.36791992 3.67773438 38 4 C39.66918945 5.74414062 39.66918945 5.74414062 41.11328125 8.15625 C41.63857422 9.01347656 42.16386719 9.87070313 42.70507812 10.75390625 C43.23552734 11.66011719 43.76597656 12.56632812 44.3125 13.5 C44.86228516 14.40621094 45.41207031 15.31242187 45.97851562 16.24609375 C47.33554648 18.48814472 48.6748606 20.73900266 50 23 C51.60122557 20.59816164 52.53585561 18.84821846 53.5078125 16.20703125 C53.77207031 15.49482422 54.03632812 14.78261719 54.30859375 14.04882812 C54.57800781 13.31083984 54.84742188 12.57285156 55.125 11.8125 C55.40214844 11.06291016 55.67929688 10.31332031 55.96484375 9.54101562 C56.64670402 7.69529041 57.32381559 5.84781213 58 4 C61.32055668 4.5903691 61.82171803 4.75395639 63.921875 7.65234375 C64.52515625 8.73644531 65.1284375 9.82054688 65.75 10.9375 C66.36359375 12.01902344 66.9771875 13.10054687 67.609375 14.21484375 C69 17 69 17 69 19 C69.66 19 70.32 19 71 19 C71.26941406 18.28457031 71.53882812 17.56914063 71.81640625 16.83203125 C73.01164779 13.97212987 74.37849208 11.36518535 75.9375 8.6875 C76.44152344 7.80449219 76.94554688 6.92148438 77.46484375 6.01171875 C77.97144531 5.34785156 78.47804688 4.68398437 79 4 C79.99 4 80.98 4 82 4 C83.67257264 7.78908876 85.33705115 11.58167885 87 15.375 C87.47695312 16.45523438 87.95390625 17.53546875 88.4453125 18.6484375 C88.89648438 19.6796875 89.34765625 20.7109375 89.8125 21.7734375 C90.23144531 22.72653809 90.65039062 23.67963867 91.08203125 24.66162109 C92 27 92 27 92 29 C89.69 29 87.38 29 85 29 C83.35 25.04 81.7 21.08 80 17 C77.08131263 19.91868737 75.28056922 21.86571796 73.25 25.25 C72.82203125 25.95640625 72.3940625 26.6628125 71.953125 27.390625 C71.48132813 28.18726563 71.48132813 28.18726563 71 29 C65.71953278 27.23984426 63.79993416 21.59611834 61 17 C59.35 20.96 57.7 24.92 56 29 C48.5625 29.53125 48.5625 29.53125 45 29 C43.66666667 27 42.33333333 25 41 23 C37.20277391 22.08585298 33.79739032 22.08862632 30 23 C28.61061923 24.96147874 27.2739589 26.96166576 26 29 C22.81953341 30.03506309 20.20014629 29.91201471 17 29 C12.81711495 26.03745762 10.05288554 22.07051406 7 18 C6.67 21.63 6.34 25.26 6 29 C4.02 29 2.04 29 0 29 C0 19.43 0 9.86 0 0 Z M35 12 C34.34 13.65 33.68 15.3 33 17 C34.65 17 36.3 17 38 17 C37.34 15.35 36.68 13.7 36 12 C35.67 12 35.34 12 35 12 Z " fill="#55648C" transform="translate(12,61)"/>
<path d="M0 0 C0.66 0 1.32 0 2 0 C2 7.59 2 15.18 2 23 C1.34 23 0.68 23 0 23 C-0.33 25.64 -0.66 28.28 -1 31 C-1.66 31 -2.32 31 -3 31 C-3.144375 32.010625 -3.28875 33.02125 -3.4375 34.0625 C-3.95833333 37.70833333 -4.47916667 41.35416667 -5 45 C-5.66902344 44.96519531 -6.33804688 44.93039063 -7.02734375 44.89453125 C-13.45889442 44.71323922 -19.55217297 45.22487194 -25.875 46.3125 C-26.587771 46.43020752 -27.30054199 46.54791504 -28.03491211 46.66918945 C-32.47331272 47.48255798 -36.03410857 48.88683098 -40 51 C-40.66 51 -41.32 51 -42 51 C-41.49259538 46.60249328 -38.91706686 44.13051078 -36 41 C-35.34 41 -34.68 41 -34 41 C-33.67 40.01 -33.34 39.02 -33 38 C-32.34 38 -31.68 38 -31 38 C-31 37.34 -31 36.68 -31 36 C-30.34 36 -29.68 36 -29 36 C-28.34 34.35 -27.68 32.7 -27 31 C-26.34 31 -25.68 31 -25 31 C-25 30.34 -25 29.68 -25 29 C-24.34 29 -23.68 29 -23 29 C-23 28.34 -23 27.68 -23 27 C-22.34 27 -21.68 27 -21 27 C-21 26.01 -21 25.02 -21 24 C-20.34 24 -19.68 24 -19 24 C-19 23.34 -19 22.68 -19 22 C-18.34 22 -17.68 22 -17 22 C-16.67 21.01 -16.34 20.02 -16 19 C-15.67 18.34 -15.34 17.68 -15 17 C-14.34 17 -13.68 17 -13 17 C-12.67 16.01 -12.34 15.02 -12 14 C-10.5625 11.8125 -10.5625 11.8125 -9 10 C-8.34 10 -7.68 10 -7 10 C-7 9.34 -7 8.68 -7 8 C-6.01 8 -5.02 8 -4 8 C-4 7.01 -4 6.02 -4 5 C-3.34 5 -2.68 5 -2 5 C-2 4.34 -2 3.68 -2 3 C-1.34 3 -0.68 3 0 3 C0 2.01 0 1.02 0 0 Z " fill="#E56964" transform="translate(107,6)"/>
<path d="M0 0 C2.2109375 -0.41796875 2.2109375 -0.41796875 5 0 C6.81831575 2.2321185 8.19830373 4.22521903 9.625 6.6875 C10.0065625 7.31333984 10.388125 7.93917969 10.78125 8.58398438 C11.87175887 10.37956364 12.93666703 12.18822769 14 14 C14.99 15.65 15.98 17.3 17 19 C17.33 12.73 17.66 6.46 18 0 C29.78465804 -0.43114603 29.78465804 -0.43114603 35 3 C36 4 36 4 36.1875 6.375 C36 9 36 9 34 12 C34.495 12.391875 34.99 12.78375 35.5 13.1875 C37 15 37 15 37.5 17.4375 C37 20 37 20 34.625 22.25 C28.66368198 26.22421201 21.41354296 26.6587539 14.4375 25.3125 C11.74841082 23.8645289 10.49189748 22.65226219 9 20 C9 19.34 9 18.68 9 18 C5.04 18 1.08 18 -3 18 C-3.20625 18.94875 -3.4125 19.8975 -3.625 20.875 C-5 24 -5 24 -8 25.375 C-11 26 -11 26 -13 26 C-12.48832997 20.74755054 -9.75374872 16.83484188 -7.0625 12.4375 C-6.1564713 10.93684992 -5.25148763 9.43556829 -4.34765625 7.93359375 C-3.94554932 7.27415771 -3.54344238 6.61472168 -3.12915039 5.93530273 C-1.99653289 3.99405756 -0.98287139 2.0205811 0 0 Z M25 5 C25.33 6.32 25.66 7.64 26 9 C26.99 8.01 27.98 7.02 29 6 C27.68 5.67 26.36 5.34 25 5 Z M2 9 C1.67 10.32 1.34 11.64 1 13 C2.32 13 3.64 13 5 13 C4.34 11.68 3.68 10.36 3 9 C2.67 9 2.34 9 2 9 Z M25 15 C25 16.65 25 18.3 25 20 C26.65 19.34 28.3 18.68 30 18 C30 17.34 30 16.68 30 16 C28.35 15.67 26.7 15.34 25 15 Z " fill="#283B6D" transform="translate(131,65)"/>
<path d="M0 0 C1.78726753 0.00848969 1.78726753 0.00848969 3.61064148 0.01715088 C7.41141144 0.03951815 11.21123432 0.08971815 15.01171875 0.140625 C17.59048117 0.16068941 20.16925838 0.17894028 22.74804688 0.1953125 C29.0654266 0.23938429 35.38225501 0.3063013 41.69921875 0.390625 C41.69921875 1.380625 41.69921875 2.370625 41.69921875 3.390625 C41.04189255 3.39427063 40.38456635 3.39791626 39.70732117 3.40167236 C32.87784215 3.44341919 26.04904009 3.5127096 19.2199707 3.59814453 C16.6699093 3.62640456 14.11975949 3.64759388 11.56958008 3.66162109 C7.90790369 3.68298028 4.24729611 3.72959672 0.5859375 3.78125 C-1.12980217 3.78309296 -1.12980217 3.78309296 -2.88020325 3.78497314 C-4.47151314 3.81455109 -4.47151314 3.81455109 -6.0949707 3.84472656 C-7.49728691 3.85805023 -7.49728691 3.85805023 -8.92793274 3.87164307 C-11.44086166 4.1920807 -11.44086166 4.1920807 -13.10287476 6.25115967 C-14.68055123 9.06889556 -14.67326662 11.10817591 -14.6640625 14.328125 C-14.66341797 15.47023438 -14.66277344 16.61234375 -14.66210938 17.7890625 C-14.64599609 18.97757813 -14.62988281 20.16609375 -14.61328125 21.390625 C-14.61650391 22.57914063 -14.61972656 23.76765625 -14.62304688 24.9921875 C-14.86484722 32.04100815 -14.86484722 32.04100815 -12.30078125 38.390625 C-9.02008874 39.48418917 -6.61267175 39.51917072 -3.15846252 39.52433777 C-1.22989914 39.53073524 -1.22989914 39.53073524 0.73762512 39.53726196 C2.16549686 39.53691244 3.59336857 39.5364509 5.02124023 39.53588867 C6.52256352 39.53888029 8.02388603 39.54228283 9.52520752 39.54606628 C13.60575093 39.55490966 17.68627337 39.55724453 21.76682544 39.55788207 C25.1715009 39.55883098 28.57617146 39.56250904 31.98084503 39.56605417 C40.01205351 39.57419983 48.04325076 39.57663828 56.07446289 39.57592773 C64.36384039 39.57532674 72.65315285 39.58588265 80.94251388 39.6016714 C88.05595692 39.61473842 95.16937868 39.62011199 102.28283364 39.61947232 C106.53291837 39.61921711 110.78294531 39.62208117 115.03301811 39.63265038 C119.02946427 39.6423174 123.02579721 39.64242018 127.02224731 39.63513374 C128.48961108 39.63408619 129.95698184 39.63646087 131.42433357 39.6424942 C133.4261803 39.65019261 135.42806546 39.64437969 137.42991638 39.63786316 C138.55060737 39.63840793 139.67129835 39.63895269 140.82594967 39.63951397 C143.68017592 39.39227453 145.32818935 38.96530595 147.69921875 37.390625 C149.92102655 32.9470094 148.92913813 26.89521675 148.94921875 22.015625 C148.96984375 20.77039063 148.99046875 19.52515625 149.01171875 18.2421875 C149.016875 17.0459375 149.02203125 15.8496875 149.02734375 14.6171875 C149.0413623 12.97097412 149.0413623 12.97097412 149.05566406 11.29150391 C148.65839357 8.05837517 147.95263633 6.70257735 145.69921875 4.390625 C143.66756215 3.70211671 143.66756215 3.70211671 141.51171875 3.640625 C140.25359375 3.558125 138.99546875 3.475625 137.69921875 3.390625 C137.69921875 2.400625 137.69921875 1.410625 137.69921875 0.390625 C139.09325631 0.28128872 140.48985651 0.20442947 141.88671875 0.140625 C143.05267578 0.07101563 143.05267578 0.07101563 144.2421875 0 C147.76472027 0.56002111 149.22093168 1.83929795 151.69921875 4.390625 C152.19722942 7.1617606 152.37972976 9.31259607 152.328125 12.078125 C152.33053696 12.81764404 152.33294891 13.55716309 152.33543396 14.3190918 C152.33445657 15.87912368 152.32108831 17.43919071 152.29614258 18.99902344 C152.26182328 21.38336297 152.27548617 23.76399627 152.29492188 26.1484375 C152.28802313 27.6666824 152.27835047 29.18491776 152.265625 30.703125 C152.27058487 31.41364014 152.27554474 32.12415527 152.28065491 32.85620117 C152.20541548 36.02750125 151.98804542 38.00128611 150.07627106 40.57836151 C146.93968112 42.96969611 145.05674976 42.89353786 141.13293457 42.89855957 C140.14586352 42.90791951 140.14586352 42.90791951 139.13885164 42.91746855 C136.93530151 42.93341518 134.73285507 42.92078909 132.52929688 42.90820312 C130.94900365 42.91362355 129.36871548 42.92074577 127.78843689 42.92944336 C123.49709386 42.94768927 119.20613519 42.94060408 114.91478539 42.92792702 C110.42564222 42.91780587 105.93653214 42.92719023 101.4473877 42.93347168 C93.90838711 42.94075067 86.36954321 42.9311538 78.83056641 42.91210938 C70.11219936 42.8903401 61.39420646 42.8973913 52.67584848 42.919415 C45.19293211 42.93756185 37.71012843 42.94013084 30.22719717 42.92966032 C25.75687622 42.92342144 21.28673118 42.92260055 16.81642151 42.93580627 C12.61380546 42.94735381 8.4116722 42.93935946 4.20910835 42.91622925 C2.66596338 42.91093624 1.12277785 42.91246609 -0.42035103 42.92127991 C-2.52561642 42.93219661 -4.62933079 42.9185219 -6.73449707 42.89855957 C-8.50207745 42.89629742 -8.50207745 42.89629742 -10.30536652 42.89398956 C-13.94111518 42.28302006 -15.12493693 41.32366719 -17.30078125 38.390625 C-17.7110484 35.68980916 -17.88602933 33.40227028 -17.8671875 30.703125 C-17.87338608 29.96360596 -17.87958466 29.22408691 -17.88597107 28.4621582 C-17.89305938 26.90219435 -17.88991232 25.3421547 -17.87719727 23.78222656 C-17.86332225 21.39767152 -17.897417 19.0170366 -17.93554688 16.6328125 C-17.93649807 15.11458238 -17.93463921 13.59634735 -17.9296875 12.078125 C-17.94294571 11.36760986 -17.95620392 10.65709473 -17.96986389 9.92504883 C-17.90737235 6.59685322 -17.48702003 4.6489761 -15.53027344 1.93457031 C-10.45550293 -0.49155977 -5.54959665 -0.09916429 0 0 Z " fill="#DD3831" transform="translate(22.30078125,54.609375)"/>
<path d="M0 0 C4 1 4 1 5.921875 3.65234375 C6.52515625 4.73644531 7.1284375 5.82054688 7.75 6.9375 C8.36359375 8.01902344 8.9771875 9.10054687 9.609375 10.21484375 C11 13 11 13 11 15 C11.66 15 12.32 15 13 15 C13.26941406 14.28457031 13.53882812 13.56914063 13.81640625 12.83203125 C15.01164779 9.97212987 16.37849208 7.36518535 17.9375 4.6875 C18.44152344 3.80449219 18.94554687 2.92148438 19.46484375 2.01171875 C19.97144531 1.34785156 20.47804687 0.68398437 21 0 C21.99 0 22.98 0 24 0 C25.67257264 3.78908876 27.33705115 7.58167885 29 11.375 C29.47695312 12.45523438 29.95390625 13.53546875 30.4453125 14.6484375 C30.89648438 15.6796875 31.34765625 16.7109375 31.8125 17.7734375 C32.23144531 18.72653809 32.65039062 19.67963867 33.08203125 20.66162109 C34 23 34 23 34 25 C31.69 25 29.38 25 27 25 C24.525 19.06 24.525 19.06 22 13 C19.08131263 15.91868737 17.28056922 17.86571796 15.25 21.25 C14.82203125 21.95640625 14.3940625 22.6628125 13.953125 23.390625 C13.63859375 23.92171875 13.3240625 24.4528125 13 25 C7.71953278 23.23984426 5.79993416 17.59611834 3 13 C1.35 16.96 -0.3 20.92 -2 25 C-10.30078125 25.390625 -10.30078125 25.390625 -13 25 C-14.85546875 22.984375 -14.85546875 22.984375 -16 21 C-15.67 20.34 -15.34 19.68 -15 19 C-14.690625 19.639375 -14.38125 20.27875 -14.0625 20.9375 C-10.90231425 24.09768575 -7.31666092 23.81900793 -3 24 C-2.67 21.36 -2.34 18.72 -2 16 C-4.475 19.465 -4.475 19.465 -7 23 C-7.99 22.01 -8.98 21.02 -10 20 C-9.67 19.34 -9.34 18.68 -9 18 C-8.34 18.33 -7.68 18.66 -7 19 C-4.69 12.73 -2.38 6.46 0 0 Z " fill="#314474" transform="translate(70,65)"/>
<path d="M0 0 C0.66 0 1.32 0 2 0 C2 0.99 2 1.98 2 3 C2.66 3 3.32 3 4 3 C4 3.66 4 4.32 4 5 C4.66 5 5.32 5 6 5 C6 5.99 6 6.98 6 8 C6.66 8 7.32 8 8 8 C8 8.66 8 9.32 8 10 C8.99 10.33 9.98 10.66 11 11 C13.1875 12.9375 13.1875 12.9375 15 15 C15 15.66 15 16.32 15 17 C15.66 17 16.32 17 17 17 C17.33 17.66 17.66 18.32 18 19 C18.515625 19.495 19.03125 19.99 19.5625 20.5 C21 22 21 22 21 24 C21.66 24 22.32 24 23 24 C23 24.99 23 25.98 23 27 C23.66 27 24.32 27 25 27 C25 27.66 25 28.32 25 29 C25.66 29 26.32 29 27 29 C27 29.66 27 30.32 27 31 C27.66 31 28.32 31 29 31 C29.66 32.65 30.32 34.3 31 36 C30.030625 36.268125 29.06125 36.53625 28.0625 36.8125 C26.5465625 37.4003125 26.5465625 37.4003125 25 38 C24.67 38.99 24.34 39.98 24 41 C23.67 40.01 23.34 39.02 23 38 C21.8553125 37.814375 21.8553125 37.814375 20.6875 37.625 C18 37 18 37 15 35 C13.68 35 12.36 35 11 35 C8.9375 34.5 8.9375 34.5 7 33 C3.81884803 26.73622731 2.95112979 20.08574802 2.28125 13.18359375 C2.00719021 11.05582401 1.5343444 9.07524453 1 7 C0.6503582 4.66905466 0.31445513 2.33595238 0 0 Z " fill="#EA8681" transform="translate(112,6)"/>
<path d="M0 0 C1.98 0 3.96 0 6 0 C6.33 3.3 6.66 6.6 7 10 C7.92232422 9.16855469 7.92232422 9.16855469 8.86328125 8.3203125 C9.67152344 7.59585938 10.47976562 6.87140625 11.3125 6.125 C12.11300781 5.40570313 12.91351563 4.68640625 13.73828125 3.9453125 C18.05498708 0.23249816 20.36191819 -0.2127578 26 0 C25.87890625 1.703125 25.87890625 1.703125 25 4 C23.00484099 5.72894698 21.08570336 7.24257501 18.9375 8.75 C18.36966797 9.16121094 17.80183594 9.57242188 17.21679688 9.99609375 C15.81805343 11.00695036 14.40990625 12.00477206 13 13 C14.1446875 14.5778125 14.1446875 14.5778125 15.3125 16.1875 C17.36202927 19.04757756 19.18962217 21.98270362 21 25 C21.66 25.66 22.32 26.32 23 27 C19.9361192 27.43769726 17.83395091 27.60855877 15.265625 25.734375 C13.71528294 24.21356327 12.28159145 22.75423511 11 21 C11 20.34 11 19.68 11 19 C9.68 18.67 8.36 18.34 7 18 C6.67 21.63 6.34 25.26 6 29 C4.02 29 2.04 29 0 29 C0 19.43 0 9.86 0 0 Z " fill="#394A79" transform="translate(12,61)"/>
<path d="M0 0 C0.99 0.33 1.98 0.66 3 1 C2.67 9.58 2.34 18.16 2 27 C2.66 27 3.32 27 4 27 C4.18175781 27.66386719 4.36351563 28.32773437 4.55078125 29.01171875 C5.91612584 33.80792924 7.36947521 37.7410551 10 42 C10 43.32 10 44.64 10 46 C8.68 46 7.36 46 6 46 C6 49.3 6 52.6 6 56 C3.03 56 0.06 56 -3 56 C-3 52.7 -3 49.4 -3 46 C-4.32 46 -5.64 46 -7 46 C-7.21192221 40.80790596 -6.5912689 36.873261 -5 32 C-4.34 32 -3.68 32 -3 32 C-2.67 29.36 -2.34 26.72 -2 24 C-1.34 24 -0.68 24 0 24 C0 16.08 0 8.16 0 0 Z " fill="#DD2B23" transform="translate(109,5)"/>
<path d="M0 0 C0.99 0.33 1.98 0.66 3 1 C2.814375 1.845625 2.62875 2.69125 2.4375 3.5625 C1.96395723 7.28319321 2.45293956 10.307342 3 14 C2.59765625 15.9140625 2.59765625 15.9140625 2 18 C1.64110788 19.58226891 1.28699368 21.16562863 0.9375 22.75 C0.76089844 23.54921875 0.58429688 24.3484375 0.40234375 25.171875 C0.20318359 26.07679687 0.20318359 26.07679687 0 27 C-5.89704873 27 -9.71584083 26.88226864 -15 24 C-15 24.66 -15 25.32 -15 26 C-17 26 -19 26 -21 26 C-21 25.34 -21 24.68 -21 24 C-20.34 24 -19.68 24 -19 24 C-19 23.34 -19 22.68 -19 22 C-18.34 22 -17.68 22 -17 22 C-17 21.01 -17 20.02 -17 19 C-16.34 19 -15.68 19 -15 19 C-15 18.34 -15 17.68 -15 17 C-14.34 17 -13.68 17 -13 17 C-12.67 16.01 -12.34 15.02 -12 14 C-11.67 13.34 -11.34 12.68 -11 12 C-10.34 12 -9.68 12 -9 12 C-8.67 11.01 -8.34 10.02 -8 9 C-6.5625 6.8125 -6.5625 6.8125 -5 5 C-4.34 5 -3.68 5 -3 5 C-3 4.34 -3 3.68 -3 3 C-2.01 3 -1.02 3 0 3 C0 2.01 0 1.02 0 0 Z " fill="#EA8783" transform="translate(103,11)"/>
<path d="M0 0 C11.73876575 -0.46133832 11.73876575 -0.46133832 17 3 C18 4 18 4 18.1875 6.4375 C18 9 18 9 16 11 C15.01 11 14.02 11 13 11 C13 11.66 13 12.32 13 13 C13.639375 13.268125 14.27875 13.53625 14.9375 13.8125 C17 15 17 15 18 18 C15.625 18.1875 15.625 18.1875 13 18 C12.34 17.01 11.68 16.02 11 15 C7.93443402 14.26656572 7.93443402 14.26656572 5 14 C5 16.31 5 18.62 5 21 C8.96 20.505 8.96 20.505 13 20 C13 20.99 13 21.98 13 23 C10.11788698 23.96070434 8.30149956 24.10581883 5.3125 24.0625 C4.10013672 24.04896484 4.10013672 24.04896484 2.86328125 24.03515625 C2.24839844 24.02355469 1.63351563 24.01195313 1 24 C0.01956036 21.05868109 -0.11621202 19.17498335 -0.09765625 16.11328125 C-0.09443359 15.17548828 -0.09121094 14.23769531 -0.08789062 13.27148438 C-0.07532227 11.80678711 -0.07532227 11.80678711 -0.0625 10.3125 C-0.05798828 9.32443359 -0.05347656 8.33636719 -0.04882812 7.31835938 C-0.03704303 4.87884526 -0.02059011 2.43945311 0 0 Z M7 5 C7.33 6.32 7.66 7.64 8 9 C8.99 8.01 9.98 7.02 11 6 C9.68 5.67 8.36 5.34 7 5 Z " fill="#2C3F70" transform="translate(149,65)"/>
<path d="M0 0 C-1 3 -1 3 -4.3125 4.75 C-8.31918742 6.94668489 -10.5617008 9.65349144 -12 14 C-12.58271866 17.66421395 -12.86596388 21.29390135 -13 25 C-14.98 25 -16.96 25 -19 25 C-19.03738281 24.27554688 -19.07476562 23.55109375 -19.11328125 22.8046875 C-19.58065427 15.93155489 -20.3679696 11.04328515 -25 5.6875 C-26.98906415 3.79804078 -26.98906415 3.79804078 -30 3 C-30 2.01 -30 1.02 -30 0 C-22.76813075 -0.49029622 -22.76813075 -0.49029622 -19.0625 1.875 C-17 4 -17 4 -16 6 C-15.36384766 5.36771484 -15.36384766 5.36771484 -14.71484375 4.72265625 C-10.56837851 0.84958433 -5.8503331 -2.92516655 0 0 Z " fill="#657397" transform="translate(127,65)"/>
<path d="M0 0 C0.33 0.66 0.66 1.32 1 2 C1.66 2 2.32 2 3 2 C3 1.34 3 0.68 3 0 C3.9075 0.33 4.815 0.66 5.75 1 C9.07045807 2.19605723 9.07045807 2.19605723 13 2 C13.99 2.33 14.98 2.66 16 3 C15.34 4.98 14.68 6.96 14 9 C13.34 8.34 12.68 7.68 12 7 C11.3503125 7.7425 11.3503125 7.7425 10.6875 8.5 C9 10 9 10 6 10 C6 10.99 6 11.98 6 13 C5.01 13 4.02 13 3 13 C3 12.01 3 11.02 3 10 C2.34 10 1.68 10 1 10 C1 10.66 1 11.32 1 12 C-2.30371117 14.20247411 -3.2150317 14.09462421 -7 14 C-7.99 14.33 -8.98 14.66 -10 15 C-10 14.01 -10 13.02 -10 12 C-10.66 12 -11.32 12 -12 12 C-11.67 11.01 -11.34 10.02 -11 9 C-10.34 9 -9.68 9 -9 9 C-9 8.34 -9 7.68 -9 7 C-8.34 7 -7.68 7 -7 7 C-6.773125 6.21625 -6.54625 5.4325 -6.3125 4.625 C-5 2 -5 2 -2.375 0.6875 C-1.59125 0.460625 -0.8075 0.23375 0 0 Z " fill="#EA8682" transform="translate(85,35)"/>
<path d="M0 0 C0.99 0 1.98 0 3 0 C4.67257264 3.78908876 6.33705115 7.58167885 8 11.375 C8.71542969 12.99535156 8.71542969 12.99535156 9.4453125 14.6484375 C9.89648438 15.6796875 10.34765625 16.7109375 10.8125 17.7734375 C11.23144531 18.72653809 11.65039062 19.67963867 12.08203125 20.66162109 C13 23 13 23 13 25 C10.69 25 8.38 25 6 25 C5.16235732 23.04350603 4.33000941 21.08474444 3.5 19.125 C3.0359375 18.03445312 2.571875 16.94390625 2.09375 15.8203125 C1 13 1 13 1 11 C-1.54379491 12.84205838 -3.83312509 14.72478134 -6 17 C-7 15 -7 15 -6.58203125 13.046875 C-4.94363533 8.15663743 -3.28961112 4.00921355 0 0 Z " fill="#293C6E" transform="translate(91,65)"/>
<path d="M0 0 C1.08089401 0.00015106 2.16178802 0.00030212 3.2754364 0.00045776 C5.02398674 0.01594162 5.02398674 0.01594162 6.80786133 0.03173828 C8.00220291 0.03456818 9.19654449 0.03739807 10.42707825 0.04031372 C14.24811755 0.05152401 18.06892392 0.07663042 21.88989258 0.10205078 C24.47777982 0.11207947 27.06567073 0.12120551 29.65356445 0.12939453 C36.00325353 0.15146614 42.35280642 0.18495218 48.70239258 0.22705078 C48.70239258 1.21705078 48.70239258 2.20705078 48.70239258 3.22705078 C48.02223083 3.22038895 47.34206909 3.21372711 46.64129639 3.2068634 C39.56877362 3.14054605 32.49633904 3.09526498 25.42358398 3.06225586 C22.78324802 3.04715988 20.14293716 3.02668124 17.50268555 3.00073242 C13.70981655 2.96438588 9.91727881 2.94733233 6.12426758 2.93408203 C4.94185486 2.91859818 3.75944214 2.90311432 2.54119873 2.88716125 C0.88993988 2.88682137 0.88993988 2.88682137 -0.79467773 2.88647461 C-1.76286438 2.87981277 -2.73105103 2.87315094 -3.72857666 2.86628723 C-6.70772124 3.2846422 -8.07920435 4.24622279 -10.29760742 6.22705078 C-8.05522136 1.05231371 -5.4868023 -0.0255795 0 0 Z " fill="#E45F59" transform="translate(15.297607421875,54.77294921875)"/>
<path d="M0 0 C4.13032972 1.90630603 6.01907172 3.94381352 8 8 C8.71143088 9.98451771 9.38991336 11.98202112 10 14 C10.8971875 12.824375 10.8971875 12.824375 11.8125 11.625 C14 9 14 9 17 7 C16.125 13.75 16.125 13.75 15 16 C11.94593324 16.29941831 9.04510385 16.43280664 6 16 C3.375 13.5625 3.375 13.5625 1 11 C-2.68441504 10.11472891 -2.68441504 10.11472891 -6 10 C-6 9.34 -6 8.68 -6 8 C-7.32 7.67 -8.64 7.34 -10 7 C-9.01 7 -8.02 7 -7 7 C-7 6.34 -7 5.68 -7 5 C-5.02 5 -3.04 5 -1 5 C-1.33 3.68 -1.66 2.36 -2 1 C-1.34 0.67 -0.68 0.34 0 0 Z " fill="#2C3F70" transform="translate(52,73)"/>
<path d="M0 0 C0.99 0.66 1.98 1.32 3 2 C3.1875 4.625 3.1875 4.625 3 7 C3.66 6.34 4.32 5.68 5 5 C4.814375 6.093125 4.62875 7.18625 4.4375 8.3125 C3.7421932 11.93624133 3.7421932 11.93624133 5 15 C5.66 14.34 6.32 13.68 7 13 C6.67 15.97 6.34 18.94 6 22 C6.99 21.67 7.98 21.34 9 21 C9.66 21.33 10.32 21.66 11 22 C11 22.99 11 23.98 11 25 C12.65 25.33 14.3 25.66 16 26 C13.35491041 28.64508959 11.70028236 28.78233633 8 29 C5.03439897 27.96548801 3.52473906 27.00810866 2.05859375 24.19140625 C0.63184245 20.54526404 -0.43260219 16.87721834 -1 13 C-1.17208984 11.92878906 -1.17208984 11.92878906 -1.34765625 10.8359375 C-1.45980469 10.04445313 -1.57195312 9.25296875 -1.6875 8.4375 C-1.79449219 7.69371094 -1.90148437 6.94992188 -2.01171875 6.18359375 C-1.99797138 3.62199972 -1.2915591 2.18228952 0 0 Z " fill="#EC8D89" transform="translate(116,13)"/>
<path d="M0 0 C4 4 4 4 4.3203125 7.0234375 C4.25585938 8.12945312 4.19140625 9.23546875 4.125 10.375 C3.86626664 15.17844103 4.38992387 18.48059713 6 23 C6.16015625 25.16015625 6.16015625 25.16015625 6.0625 27.0625 C6.041875 28.361875 6.02125 29.66125 6 31 C5.979375 31.9075 5.95875 32.815 5.9375 33.75 C7.79130125 37.67569676 12.08670643 38.5848898 16 40 C16 40.66 16 41.32 16 42 C14.865625 42.12375 13.73125 42.2475 12.5625 42.375 C11.386875 42.58125 10.21125 42.7875 9 43 C8.67 43.66 8.34 44.32 8 45 C7.566875 43.824375 7.13375 42.64875 6.6875 41.4375 C5.65416537 38.65733779 4.54180054 35.94860737 3.3125 33.25 C2 30 2 30 2 26 C1.34 26 0.68 26 0 26 C0 17.42 0 8.84 0 0 Z " fill="#E2514B" transform="translate(111,6)"/>
<path d="M0 0 C0.66 0 1.32 0 2 0 C2 0.99 2 1.98 2 3 C2.66 3 3.32 3 4 3 C4 3.66 4 4.32 4 5 C4.66 5 5.32 5 6 5 C6 5.99 6 6.98 6 8 C6.66 8 7.32 8 8 8 C8 8.66 8 9.32 8 10 C8.99 10.33 9.98 10.66 11 11 C13.1875 12.9375 13.1875 12.9375 15 15 C15 15.66 15 16.32 15 17 C15.66 17 16.32 17 17 17 C15.68938409 21.23429756 14.05643741 25.07407404 12 29 C11.01 29 10.02 29 9 29 C9 27 9 25 9 23 C8.34 22.01 7.68 21.02 7 20 C7 19.01 7 18.02 7 17 C6.47722077 13.65421292 5.4640957 12.26696804 3 10 C0.70366176 6.55549263 0.45983515 4.06187717 0 0 Z " fill="#EFA09C" transform="translate(112,6)"/>
<path d="M0 0 C2.29296875 -0.28125 2.29296875 -0.28125 5 0 C6.80078125 1.96875 6.80078125 1.96875 8.3125 4.5 C8.82425781 5.3353125 9.33601563 6.170625 9.86328125 7.03125 C10.23839844 7.6809375 10.61351562 8.330625 11 9 C10.67 9.66 10.34 10.32 10 11 C8.68 10.34 7.36 9.68 6 9 C6.33 10.65 6.66 12.3 7 14 C4.36 14 1.72 14 -1 14 C-1 12.35 -1 10.7 -1 9 C-3.7839183 10.39195915 -3.97898997 12.15575779 -5 15 C-5.66 15 -6.32 15 -7 15 C-5.45454854 9.52067211 -2.84456788 4.88570819 0 0 Z M2 9 C1.67 10.32 1.34 11.64 1 13 C2.32 13 3.64 13 5 13 C4.34 11.68 3.68 10.36 3 9 C2.67 9 2.34 9 2 9 Z " fill="#7683A3" transform="translate(131,65)"/>
<path d="M0 0 C1.39403756 -0.10933628 2.79063776 -0.18619553 4.1875 -0.25 C5.35345703 -0.31960937 5.35345703 -0.31960937 6.54296875 -0.390625 C10.06760253 0.16973013 11.52358518 1.44361074 14 4 C14.47318008 6.78492014 14.6345305 8.94815583 14.55859375 11.72265625 C14.55626236 12.46454697 14.55393097 13.20643768 14.55152893 13.97080994 C14.54180722 15.53510072 14.52005576 17.0993571 14.48706055 18.66333008 C14.43759329 21.05798412 14.42557596 23.45058394 14.41992188 25.84570312 C14.4058371 27.36720936 14.38963312 28.88869777 14.37109375 30.41015625 C14.36573105 31.12583267 14.36036835 31.84150909 14.35484314 32.57887268 C14.26694046 36.24932851 14.0898655 37.86520174 12 41 C11.34 40.67 10.68 40.34 10 40 C10 37 10 37 11 35 C11.2715771 30.5469585 11.23164453 26.0853799 11.25 21.625 C11.2809375 19.75714844 11.2809375 19.75714844 11.3125 17.8515625 C11.31765625 16.6553125 11.3228125 15.4590625 11.328125 14.2265625 C11.3374707 13.12908691 11.34681641 12.03161133 11.35644531 10.90087891 C10.95917482 7.66775017 10.25341758 6.31195235 8 4 C5.9683434 3.31149171 5.9683434 3.31149171 3.8125 3.25 C2.554375 3.1675 1.29625 3.085 0 3 C0 2.01 0 1.02 0 0 Z " fill="#E04741" transform="translate(160,55)"/>
<path d="M0 0 C7.19825708 -0.48801743 7.19825708 -0.48801743 10.875 1.75 C12.80797343 3.79667775 13.97795695 5.39843586 15 8 C13.35 8 11.7 8 10 8 C10.495 8.804375 10.99 9.60875 11.5 10.4375 C13.34527349 14.82002454 13.28061086 18.32315231 13 23 C13.99 23 14.98 23 16 23 C15.97679688 22.30132812 15.95359375 21.60265625 15.9296875 20.8828125 C15.91164063 19.97273438 15.89359375 19.06265625 15.875 18.125 C15.85179688 17.22007813 15.82859375 16.31515625 15.8046875 15.3828125 C16 13 16 13 18 11 C17.67 15.62 17.34 20.24 17 25 C15.02 25 13.04 25 11 25 C10.96261719 24.27554688 10.92523438 23.55109375 10.88671875 22.8046875 C10.41934573 15.93155489 9.6320304 11.04328515 5 5.6875 C3.01093585 3.79804078 3.01093585 3.79804078 0 3 C0 2.01 0 1.02 0 0 Z " fill="#7884A4" transform="translate(97,65)"/>
<path d="M0 0 C-0.12109375 1.703125 -0.12109375 1.703125 -1 4 C-2.99515901 5.72894698 -4.91429664 7.24257501 -7.0625 8.75 C-7.63033203 9.16121094 -8.19816406 9.57242188 -8.78320312 9.99609375 C-10.18194657 11.00695036 -11.59009375 12.00477206 -13 13 C-12.01 14.32 -11.02 15.64 -10 17 C-10.33 17.66 -10.66 18.32 -11 19 C-13.5 16.6875 -13.5 16.6875 -16 14 C-16 13.01 -16 12.02 -16 11 C-16.99 10.67 -17.98 10.34 -19 10 C-17.56458334 8.70601853 -16.12658648 7.41489889 -14.6875 6.125 C-13.88699219 5.40570313 -13.08648437 4.68640625 -12.26171875 3.9453125 C-7.94501292 0.23249816 -5.63808181 -0.2127578 0 0 Z " fill="#6B799B" transform="translate(38,61)"/>
<path d="M0 0 C0.30035156 0.60328125 0.60070312 1.2065625 0.91015625 1.828125 C2.16602082 4.33085153 3.40059222 6.69685279 5 9 C5.99 9 6.98 9 8 9 C8 9.66 8 10.32 8 11 C8.66 11 9.32 11 10 11 C10.33 10.34 10.66 9.68 11 9 C11.5775 9.474375 12.155 9.94875 12.75 10.4375 C14.92582084 11.9484867 16.42602448 12.54036151 19 13 C18.875 14.875 18.875 14.875 18 17 C13.32069904 19.28258584 9.08174565 19.17523261 4 19 C4.66 18.01 5.32 17.02 6 16 C7.65 16.33 9.3 16.66 11 17 C11 16.34 11 15.68 11 15 C10.278125 14.896875 9.55625 14.79375 8.8125 14.6875 C3.53968254 13.39858907 3.53968254 13.39858907 1 11 C0.25935319 7.34001538 0.06962348 3.72802077 0 0 Z " fill="#E87671" transform="translate(116,31)"/>
<path d="M0 0 C2.15377564 2.62198774 3.40072174 4.64404172 4 8 C0.37673261 9.2077558 -0.64146369 8.54311128 -4 7 C-1.525 10.465 -1.525 10.465 1 14 C0.01 14.33 -0.98 14.66 -2 15 C-3 14 -4 13 -5 12 C-5.66 12 -6.32 12 -7 12 C-7 12.66 -7 13.32 -7 14 C-7.66 14 -8.32 14 -9 14 C-9 14.66 -9 15.32 -9 16 C-11 16 -13 16 -15 16 C-15 15.34 -15 14.68 -15 14 C-14.34 14 -13.68 14 -13 14 C-13 13.34 -13 12.68 -13 12 C-12.34 12 -11.68 12 -11 12 C-11 11.01 -11 10.02 -11 9 C-10.34 9 -9.68 9 -9 9 C-9 8.34 -9 7.68 -9 7 C-8.34 7 -7.68 7 -7 7 C-6.67 6.01 -6.34 5.02 -6 4 C-5.67 3.34 -5.34 2.68 -5 2 C-3.68 2 -2.36 2 -1 2 C-0.67 1.34 -0.34 0.68 0 0 Z " fill="#EE9D99" transform="translate(97,21)"/>
<path d="M0 0 C0.99 0.33 1.98 0.66 3 1 C2.67 9.58 2.34 18.16 2 27 C2.66 27 3.32 27 4 27 C3.67 28.32 3.34 29.64 3 31 C3 30.01 3 29.02 3 28 C1.35 28.66 -0.3 29.32 -2 30 C-2.0825 31.051875 -2.165 32.10375 -2.25 33.1875 C-3.05320762 37.27047209 -4.19334709 39.0122727 -7 42 C-6.34 38.7 -5.68 35.4 -5 32 C-4.34 32 -3.68 32 -3 32 C-2.67 29.36 -2.34 26.72 -2 24 C-1.34 24 -0.68 24 0 24 C0 16.08 0 8.16 0 0 Z " fill="#DD362F" transform="translate(109,5)"/>
<path d="M0 0 C11.78465804 -0.43114603 11.78465804 -0.43114603 17 3 C18 4 18 4 18.0625 6.5625 C18.041875 7.366875 18.02125 8.17125 18 9 C16.02 9.99 16.02 9.99 14 11 C14 10.01 14 9.02 14 8 C13.2575 8.33 12.515 8.66 11.75 9 C9 10 9 10 5 10 C5 8.02 5 6.04 5 4 C6.98 4 8.96 4 11 4 C11.33 3.34 11.66 2.68 12 2 C8.37 1.67 4.74 1.34 1 1 C1 6.61 1 12.22 1 18 C0.67 18 0.34 18 0 18 C0 12.06 0 6.12 0 0 Z M7 5 C7.33 6.32 7.66 7.64 8 9 C8.99 8.01 9.98 7.02 11 6 C9.68 5.67 8.36 5.34 7 5 Z " fill="#637195" transform="translate(149,65)"/>
<path d="M0 0 C4.42857143 5.14285714 4.42857143 5.14285714 5 9 C5.66 9 6.32 9 7 9 C7.66 7.35 8.32 5.7 9 4 C10 6 10 6 10 8 C11.65 7.01 13.3 6.02 15 5 C13.6744419 8.62276315 12.05653045 11.63505348 9.875 14.8125 C9.06675781 15.99779297 9.06675781 15.99779297 8.2421875 17.20703125 C7.83226563 17.79871094 7.42234375 18.39039062 7 19 C4 18 4 18 2.75 15.75 C1.90981515 12.66932223 2.29302813 11.06354478 3 8 C2.63143136 5.76832815 2.63143136 5.76832815 2 4 C1.34 4 0.68 4 0 4 C0 2.68 0 1.36 0 0 Z " fill="#657296" transform="translate(76,71)"/>
<path d="M0 0 C4.875 2.875 4.875 2.875 6 4 C6.375 6.3125 6.375 6.3125 6 9 C1.65597838 13.1153889 -1.26501507 14.12611814 -7.125 14.5625 C-8.22070312 14.64628906 -9.31640625 14.73007813 -10.4453125 14.81640625 C-11.28835937 14.87699219 -12.13140625 14.93757813 -13 15 C-13.66 12.69 -14.32 10.38 -15 8 C-13.5 9.375 -13.5 9.375 -12 11 C-12 11.66 -12 12.32 -12 13 C-8.04 12.34 -4.08 11.68 0 11 C-2.92824652 10.02391783 -4.95613276 9.91773332 -8 10 C-8 7.69 -8 5.38 -8 3 C-6.02 3 -4.04 3 -2 3 C-1.34 4.32 -0.68 5.64 0 7 C1.65 7 3.3 7 5 7 C3.7625 5.824375 3.7625 5.824375 2.5 4.625 C0 2 0 2 0 0 Z M-6 4 C-6 5.65 -6 7.3 -6 9 C-4.35 8.34 -2.7 7.68 -1 7 C-1 6.34 -1 5.68 -1 5 C-2.65 4.67 -4.3 4.34 -6 4 Z " fill="#69779A" transform="translate(162,76)"/>
<path d="M0 0 C2.55263088 2.274694 3.84144815 4.43202693 5.1875 7.5625 C5.53167969 8.34753906 5.87585938 9.13257812 6.23046875 9.94140625 C7 12 7 12 7 14 C4.75 14.3125 4.75 14.3125 2 14 C-2 9.89189189 -2 9.89189189 -2 7 C-5.96 7 -9.92 7 -14 7 C-14.33 7.66 -14.66 8.32 -15 9 C-15 8.01 -15 7.02 -15 6 C-13.87851563 5.94392578 -13.87851563 5.94392578 -12.734375 5.88671875 C-11.74953125 5.82097656 -10.7646875 5.75523438 -9.75 5.6875 C-8.77546875 5.62949219 -7.8009375 5.57148437 -6.796875 5.51171875 C-3.72170503 4.9490829 -2.23652952 4.15665346 0 2 C0 1.34 0 0.68 0 0 Z " fill="#616F94" transform="translate(142,76)"/>
<path d="M0 0 C2.46140365 2.46140365 3.30326986 4.78456293 4.625 8 C5.07101563 9.0725 5.51703125 10.145 5.9765625 11.25 C7 14 7 14 7 16 C4.69 16 2.38 16 0 16 C-1.98 11.05 -3.96 6.1 -6 1 C-5.34 1 -4.68 1 -4 1 C-2.375 3 -2.375 3 -1 5 C-0.67 3.35 -0.34 1.7 0 0 Z " fill="#6A779A" transform="translate(97,74)"/>
<path d="M0 0 C0.33 0 0.66 0 1 0 C1.12375 0.804375 1.2475 1.60875 1.375 2.4375 C1.58125 3.283125 1.7875 4.12875 2 5 C2.66 5.33 3.32 5.66 4 6 C4.33 4.68 4.66 3.36 5 2 C5.66 2 6.32 2 7 2 C7.66 3.98 8.32 5.96 9 8 C8.01 7.01 7.02 6.02 6 5 C4.35 8.96 2.7 12.92 1 17 C-7.30078125 17.390625 -7.30078125 17.390625 -10 17 C-11.85546875 14.984375 -11.85546875 14.984375 -13 13 C-12.67 12.34 -12.34 11.68 -12 11 C-11.690625 11.639375 -11.38125 12.27875 -11.0625 12.9375 C-7.90231425 16.09768575 -4.31666092 15.81900793 0 16 C0.33 13.36 0.66 10.72 1 8 C-0.65 10.31 -2.3 12.62 -4 15 C-4.99 14.01 -5.98 13.02 -7 12 C-6.67 11.34 -6.34 10.68 -6 10 C-5.34 10.33 -4.68 10.66 -4 11 C-2.68 7.37 -1.36 3.74 0 0 Z " fill="#8E98B2" transform="translate(67,73)"/>
<path d="M0 0 C0.66 0 1.32 0 2 0 C2.433125 0.7425 2.86625 1.485 3.3125 2.25 C4.8591689 5.11886662 4.8591689 5.11886662 7.5 7 C10.1543822 9.12350576 11.37133274 11.05288781 13 14 C13.66 14.66 14.32 15.32 15 16 C11.9361192 16.43769726 9.83395091 16.60855877 7.265625 14.734375 C5.71528294 13.21356327 4.28159145 11.75423511 3 10 C3 9.34 3 8.68 3 8 C2.34 8 1.68 8 1 8 C-0.38938077 6.03852126 -1.7260411 4.03833424 -3 2 C-2.01 2 -1.02 2 0 2 C0 1.34 0 0.68 0 0 Z " fill="#364877" transform="translate(20,72)"/>
<path d="M0 0 C1.5 1.375 1.5 1.375 3 3 C3 3.66 3 4.32 3 5 C3.66 5 4.32 5 5 5 C5 5.99 5 6.98 5 8 C5.66 8 6.32 8 7 8 C7 8.66 7 9.32 7 10 C7.66 10 8.32 10 9 10 C8.34 11.65 7.68 13.3 7 15 C5.02 14.34 3.04 13.68 1 13 C1 12.34 1 11.68 1 11 C0.01 11.33 -0.98 11.66 -2 12 C-2.6875 10.1875 -2.6875 10.1875 -3 8 C-1.5625 6.25 -1.5625 6.25 0 5 C-0.66 4.67 -1.32 4.34 -2 4 C-2 3.01 -2 2.02 -2 1 C-1.34 0.67 -0.68 0.34 0 0 Z " fill="#ED9793" transform="translate(130,25)"/>
<path d="M0 0 C0.99 0.66 1.98 1.32 3 2 C3.1875 4.625 3.1875 4.625 3 7 C3.66 6.34 4.32 5.68 5 5 C4.7215625 6.670625 4.7215625 6.670625 4.4375 8.375 C3.68319343 11.82568861 3.68319343 11.82568861 5 14 C4.01 14 3.02 14 2 14 C2.37125 15.258125 2.7425 16.51625 3.125 17.8125 C3.7578125 19.95703125 3.7578125 19.95703125 4 22 C3.34 22.99 2.68 23.98 2 25 C-3.02309348 6.32925631 -3.02309348 6.32925631 -1.01171875 1.75 C-0.67785156 1.1725 -0.34398438 0.595 0 0 Z " fill="#EA827E" transform="translate(116,13)"/>
<path d="M0 0 C-1 2 -2 4 -3 6 C-3.15378852 7.95774069 -3.24971463 9.92017352 -3.31640625 11.8828125 C-3.35830078 13.04941406 -3.40019531 14.21601562 -3.44335938 15.41796875 C-3.48267578 16.64128906 -3.52199219 17.86460938 -3.5625 19.125 C-3.60568359 20.35605469 -3.64886719 21.58710937 -3.69335938 22.85546875 C-3.79968704 25.90352853 -3.90171781 28.9516719 -4 32 C-4.99 32.495 -4.99 32.495 -6 33 C-6.0990914 28.94335053 -6.17157106 24.8871723 -6.21972656 20.82958984 C-6.23980642 19.4502332 -6.26707666 18.07096131 -6.30175781 16.69189453 C-6.35042817 14.70643021 -6.37086418 12.72033746 -6.390625 10.734375 C-6.41157227 9.54038086 -6.43251953 8.34638672 -6.45410156 7.11621094 C-5.89459493 3.27667184 -4.28940554 0 0 0 Z " fill="#DC322B" transform="translate(11,57)"/>
<path d="M0 0 C1.125 3.75 1.125 3.75 0 6 C-0.22622081 7.70363822 -0.40888473 9.41328701 -0.5625 11.125 C-0.64628906 12.03507812 -0.73007813 12.94515625 -0.81640625 13.8828125 C-0.87699219 14.58148438 -0.93757813 15.28015625 -1 16 C-1.99 16 -2.98 16 -4 16 C-4.07347656 15.12988281 -4.07347656 15.12988281 -4.1484375 14.2421875 C-4.59649405 9.56076908 -5.298021 5.42514541 -7 1 C-4.53721199 -0.231394 -2.7204945 -0.07159196 0 0 Z " fill="#273A6D" transform="translate(114,72)"/>
<path d="M0 0 C0.66 0 1.32 0 2 0 C2 0.99 2 1.98 2 3 C1.34 3 0.68 3 0 3 C0 3.66 0 4.32 0 5 C0.83402344 4.7834375 1.66804688 4.566875 2.52734375 4.34375 C9.20956155 2.69041776 15.12040768 1.65019022 22 2 C17.80225776 4.79849483 13.32091002 5.05350838 8.42382812 5.76757812 C3.76260889 6.50829865 0.19617772 7.72098668 -4 10 C-4.66 10 -5.32 10 -6 10 C-5.49259538 5.60249328 -2.91706686 3.13051078 0 0 Z " fill="#EC8E89" transform="translate(71,47)"/>
<path d="M0 0 C0.99 0.33 1.98 0.66 3 1 C2.34 2.98 1.68 4.96 1 7 C0.34 6.34 -0.32 5.68 -1 5 C-1.6496875 5.7425 -1.6496875 5.7425 -2.3125 6.5 C-4 8 -4 8 -7 8 C-7 8.99 -7 9.98 -7 11 C-7.99 11 -8.98 11 -10 11 C-10 10.01 -10 9.02 -10 8 C-10.66 7.67 -11.32 7.34 -12 7 C-12.33 6.01 -12.66 5.02 -13 4 C-11.96875 4.0825 -10.9375 4.165 -9.875 4.25 C-5.38142014 3.96009162 -3.60961485 2.54313773 0 0 Z " fill="#E97E79" transform="translate(98,37)"/>
<path d="M0 0 C2.60045875 2.3024119 3.84739183 4.49896677 5.1875 7.6875 C5.53167969 8.49574219 5.87585937 9.30398437 6.23046875 10.13671875 C6.48441406 10.75160156 6.73835938 11.36648437 7 12 C7.8971875 10.824375 7.8971875 10.824375 8.8125 9.625 C11 7 11 7 14 5 C13.125 11.75 13.125 11.75 12 14 C9.03 14 6.06 14 3 14 C3 11.69 3 9.38 3 7 C2.01 7.495 2.01 7.495 1 8 C0.67 5.36 0.34 2.72 0 0 Z " fill="#58668E" transform="translate(55,75)"/>
<path d="M0 0 C1.98 0 3.96 0 6 0 C6 2.97 6 5.94 6 9 C5.67 9 5.34 9 5 9 C5 6.69 5 4.38 5 2 C4.01 2 3.02 2 2 2 C2.01047363 2.56509277 2.02094727 3.13018555 2.03173828 3.71240234 C2.07324788 6.26655653 2.0993096 8.82063982 2.125 11.375 C2.14175781 12.26445313 2.15851562 13.15390625 2.17578125 14.0703125 C2.18222656 14.92109375 2.18867188 15.771875 2.1953125 16.6484375 C2.20578613 17.43395996 2.21625977 18.21948242 2.22705078 19.02880859 C2 21 2 21 0 23 C0 15.41 0 7.82 0 0 Z " fill="#57668E" transform="translate(12,61)"/>
<path d="M0 0 C0.99 0 1.98 0 3 0 C2.97679688 0.86882813 2.95359375 1.73765625 2.9296875 2.6328125 C2.91164063 3.78523437 2.89359375 4.93765625 2.875 6.125 C2.84019531 7.83042969 2.84019531 7.83042969 2.8046875 9.5703125 C3.00327891 13.05757767 3.7475199 15.7553862 5 19 C4.34 19.66 3.68 20.32 3 21 C2.01 20.67 1.02 20.34 0 20 C0 13.4 0 6.8 0 0 Z " fill="#E56862" transform="translate(112,10)"/>
<path d="M0 0 C0.73863281 0.12632813 1.47726563 0.25265625 2.23828125 0.3828125 C1.90828125 1.0428125 1.57828125 1.7028125 1.23828125 2.3828125 C0.24828125 2.3828125 -0.74171875 2.3828125 -1.76171875 2.3828125 C-2.75171875 6.0128125 -3.74171875 9.6428125 -4.76171875 13.3828125 C-6.08171875 13.7128125 -7.40171875 14.0428125 -8.76171875 14.3828125 C-10.05832309 16.87315636 -10.05832309 16.87315636 -10.76171875 19.3828125 C-11.42171875 19.3828125 -12.08171875 19.3828125 -12.76171875 19.3828125 C-11.38119232 14.72442074 -9.44115805 10.65635175 -6.94921875 6.5078125 C-6.61857422 5.91484375 -6.28792969 5.321875 -5.94726562 4.7109375 C-3.40272527 0.47166489 -3.40272527 0.47166489 0 0 Z " fill="#7A86A5" transform="translate(47.76171875,64.6171875)"/>
<path d="M0 0 C8.03501094 -0.63019694 8.03501094 -0.63019694 12.0625 2 C12.701875 2.66 13.34125 3.32 14 4 C13.67 5.65 13.34 7.3 13 9 C12.34 8.195625 11.68 7.39125 11 6.5625 C7.12020772 3.24851076 4.99985175 3.25422975 0 3 C0 2.01 0 1.02 0 0 Z " fill="#E66D67" transform="translate(160,55)"/>
<path d="M0 0 C0.66 0 1.32 0 2 0 C3.56243233 1.74992421 4.9504466 3.59954212 6.3671875 5.46875 C8.11320518 7.45603814 8.11320518 7.45603814 12 7 C11.01 6.01 10.02 5.02 9 4 C9.33 3.34 9.66 2.68 10 2 C11.9375 2.75 11.9375 2.75 14 4 C14.75 6.125 14.75 6.125 15 8 C15.99 7.67 16.98 7.34 18 7 C17.67 7.99 17.34 8.98 17 10 C12.87874917 10.58875012 9.42587048 10.97683944 5.87890625 8.546875 C3.08468519 5.7816999 1.25545702 3.76637105 0 0 Z " fill="#7A86A5" transform="translate(21,80)"/>
<path d="M0 0 C1.32 0 2.64 0 4 0 C3.34 3.96 2.68 7.92 2 12 C1.67 11.34 1.34 10.68 1 10 C-0.32 10 -1.64 10 -3 10 C-3 9.34 -3 8.68 -3 8 C-3.66 7.67 -4.32 7.34 -5 7 C-3.68 6.67 -2.36 6.34 -1 6 C-0.67 4.02 -0.34 2.04 0 0 Z " fill="#E45E58" transform="translate(100,39)"/>
<path d="M0 0 C2.15377564 2.62198774 3.40072174 4.64404172 4 8 C0.32264395 9.22578535 -0.55066523 8.46596728 -4 7 C-4.99 7 -5.98 7 -7 7 C-6 4 -6 4 -5 2 C-3.68 2 -2.36 2 -1 2 C-0.67 1.34 -0.34 0.68 0 0 Z " fill="#F2B5B2" transform="translate(97,21)"/>
<path d="M0 0 C0.33 0.66 0.66 1.32 1 2 C0.67 2.99 0.34 3.98 0 5 C1.32 5 2.64 5 4 5 C3.34 6.65 2.68 8.3 2 10 C-0.31 10.33 -2.62 10.66 -5 11 C-4.46884894 6.48521602 -2.63379708 3.65333143 0 0 Z " fill="#6C799B" transform="translate(123,80)"/>
<path d="M0 0 C0.66 0.33 1.32 0.66 2 1 C2.40729228 3.32156597 2.74438677 5.6568787 3 8 C2.01 8.33 1.02 8.66 0 9 C-0.66 8.67 -1.32 8.34 -2 8 C-2.66 8.66 -3.32 9.32 -4 10 C-4 9.34 -4 8.68 -4 8 C-4.66 8 -5.32 8 -6 8 C-4.768606 4.30581799 -2.79208646 2.64890254 0 0 Z " fill="#ED9995" transform="translate(100,15)"/>
<path d="M0 0 C0.66 0 1.32 0 2 0 C2.19392201 5.52677733 1.7479503 9.75614911 0 15 C-0.66 15 -1.32 15 -2 15 C-3.28571429 6.42857143 -3.28571429 6.42857143 -2 3 C-1.34 3 -0.68 3 0 3 C0 2.01 0 1.02 0 0 Z " fill="#E7706B" transform="translate(107,6)"/>
<path d="M0 0 C5.28497409 -0.52849741 5.28497409 -0.52849741 8 0 C10.5 3 10.5 3 12 6 C10.1875 6.6875 10.1875 6.6875 8 7 C6.97803008 6.02246356 5.98020375 5.0194119 5 4 C2.39388923 3.27802838 2.39388923 3.27802838 0 3 C0 2.01 0 1.02 0 0 Z " fill="#5B6A90" transform="translate(97,65)"/>
<path d="M0 0 C1.093125 0.0825 2.18625 0.165 3.3125 0.25 C3.25 2.0625 3.25 2.0625 2.3125 4.25 C-1.25 6 -1.25 6 -4.6875 7.25 C-4.6875 6.59 -4.6875 5.93 -4.6875 5.25 C-5.3475 4.92 -6.0075 4.59 -6.6875 4.25 C-4.79150483 0.68106792 -4.16790733 0.28256999 0 0 Z " fill="#26396C" transform="translate(34.6875,60.75)"/>
<path d="M0 0 C2.35953094 2.35953094 2.49141413 3.77895617 3 7 C2.01 7.495 2.01 7.495 1 8 C1 10.64 1 13.28 1 16 C-1.60526888 13.39473112 -2.34134224 10.82060766 -3.625 7.375 C-4.07101563 6.18648438 -4.51703125 4.99796875 -4.9765625 3.7734375 C-5.31429687 2.85820313 -5.65203125 1.94296875 -6 1 C-5.34 1 -4.68 1 -4 1 C-2.375 3 -2.375 3 -1 5 C-0.67 3.35 -0.34 1.7 0 0 Z " fill="#828DAB" transform="translate(97,74)"/>
<path d="M0 0 C1 2 1 2 1 4 C2.65 3.01 4.3 2.02 6 1 C4.55007731 5.10811428 2.54592427 8.46855666 0 12 C-0.33 12 -0.66 12 -1 12 C-1 10.35 -1 8.7 -1 7 C-1.99 7 -2.98 7 -4 7 C-4 6.34 -4 5.68 -4 5 C-3.34 5 -2.68 5 -2 5 C-1.34 3.35 -0.68 1.7 0 0 Z " fill="#818DAA" transform="translate(85,75)"/>
<path d="M0 0 C2.79872437 2.52788007 4.45773019 4.20411134 5 8 C2.525 7.01 2.525 7.01 0 6 C0.33 7.65 0.66 9.3 1 11 C-1.64 11 -4.28 11 -7 11 C-6.67 10.01 -6.34 9.02 -6 8 C-5.67 8.66 -5.34 9.32 -5 10 C-3.68 10 -2.36 10 -1 10 C-1.495 9.38125 -1.99 8.7625 -2.5 8.125 C-4 6 -4 6 -4 4 C-2.35 4.33 -0.7 4.66 1 5 C0.67 3.35 0.34 1.7 0 0 Z " fill="#9099B3" transform="translate(137,68)"/>
<path d="M0 0 C2.72426311 2.35277269 3.8141763 4.62496331 5 8 C3.35 7.67 1.7 7.34 0 7 C0.33 8.32 0.66 9.64 1 11 C-0.32 10.01 -1.64 9.02 -3 8 C-3.99 8.99 -4.98 9.98 -6 11 C-4.52307692 5.33846154 -4.52307692 5.33846154 -1.875 3.625 C-0.946875 3.315625 -0.946875 3.315625 0 3 C0 2.01 0 1.02 0 0 Z " fill="#808BA9" transform="translate(50,67)"/>
<path d="M0 0 C0.99 0 1.98 0 3 0 C4.5625 2.8125 4.5625 2.8125 6 6 C5.67 6.99 5.34 7.98 5 9 C4.319375 7.7625 4.319375 7.7625 3.625 6.5 C3.08875 5.675 2.5525 4.85 2 4 C1.34 4 0.68 4 0 4 C-0.33 5.65 -0.66 7.3 -1 9 C-2.32 9.33 -3.64 9.66 -5 10 C-3.66786942 6.4134946 -2.23083941 3.12317517 0 0 Z " fill="#8C96B1" transform="translate(91,65)"/>
<path d="M0 0 C1.9375 0.3125 1.9375 0.3125 4 1 C4.33 1.99 4.66 2.98 5 4 C4.34 4.66 3.68 5.32 3 6 C2.34 6 1.68 6 1 6 C-0.6446674 8.46326712 -0.6446674 8.46326712 -2 11 C-3 9 -3 9 -2.44140625 6.8359375 C-2.15136719 6.02382812 -1.86132812 5.21171875 -1.5625 4.375 C-1.27503906 3.55773437 -0.98757812 2.74046875 -0.69140625 1.8984375 C-0.46324219 1.27195312 -0.23507813 0.64546875 0 0 Z " fill="#26396C" transform="translate(46,66)"/>
<path d="M0 0 C-0.165 0.763125 -0.33 1.52625 -0.5 2.3125 C-1.25018789 6.34475993 -0.95325036 8.45973372 1 12 C-4.67241379 7.65517241 -4.67241379 7.65517241 -6.0625 4.875 C-6 3 -6 3 -4.75 1.25 C-3 0 -3 0 0 0 Z " fill="#56658D" transform="translate(27,68)"/>
<path d="M0 0 C1.32 0.33 2.64 0.66 4 1 C4 1.66 4 2.32 4 3 C4.99 3.33 5.98 3.66 7 4 C2.59085217 5.10228696 -1.48382401 5.07654536 -6 5 C-5.34 4.01 -4.68 3.02 -4 2 C-2.35 2.33 -0.7 2.66 1 3 C0.67 2.01 0.34 1.02 0 0 Z M7 0 C7.66 0 8.32 0 9 0 C8.67 0.99 8.34 1.98 8 3 C7.67 2.01 7.34 1.02 7 0 Z " fill="#E56560" transform="translate(126,45)"/>
<path d="M0 0 C0.66 0 1.32 0 2 0 C3.02611949 1.65071396 4.02308143 3.31970006 5 5 C6.58245275 6.75149165 6.58245275 6.75149165 8 8 C7.67 8.66 7.34 9.32 7 10 C5.68 8.68 4.36 7.36 3 6 C2.34 6.66 1.68 7.32 1 8 C-0.32 6.02 -1.64 4.04 -3 2 C-2.01 2 -1.02 2 0 2 C0 1.34 0 0.68 0 0 Z " fill="#24386B" transform="translate(20,72)"/>
<path d="M0 0 C1.875 0.3125 1.875 0.3125 4 1 C6 4 6 4 6 7 C5.01 7.33 4.02 7.66 3 8 C3 7.01 3 6.02 3 5 C1.68 5 0.36 5 -1 5 C-0.67 3.35 -0.34 1.7 0 0 Z " fill="#293C6E" transform="translate(132,66)"/>
<path d="M0 0 C0.66 0 1.32 0 2 0 C1.60072656 2.06593758 1.17979277 4.12769527 0.75 6.1875 C0.51796875 7.33605469 0.2859375 8.48460937 0.046875 9.66796875 C-1.06894568 13.21944278 -2.51115305 15.2694675 -5 18 C-4.34 14.7 -3.68 11.4 -3 8 C-2.34 8 -1.68 8 -1 8 C-0.67 5.36 -0.34 2.72 0 0 Z " fill="#E04942" transform="translate(107,29)"/>
<path d="M0 0 C1.65 0.33 3.3 0.66 5 1 C3.3619751 4.51005335 1.96865509 7.45543849 -1 10 C-2.46726798 6.18510326 -1.43336419 3.70988378 0 0 Z " fill="#F1AEAB" transform="translate(123,26)"/>
<path d="M0 0 C0.33 0.66 0.66 1.32 1 2 C1.66 2 2.32 2 3 2 C3 1.34 3 0.68 3 0 C3.66 0.33 4.32 0.66 5 1 C4.67 1.66 4.34 2.32 4 3 C3.34 3 2.68 3 2 3 C2 3.66 2 4.32 2 5 C-0.31 5.33 -2.62 5.66 -5 6 C-5 4.68 -5 3.36 -5 2 C-3.35 1.34 -1.7 0.68 0 0 Z " fill="#E97F7A" transform="translate(85,35)"/>
<path d="M0 0 C1.08642103 3.2592631 0.92167347 3.8663102 0 7 C-0.34060811 8.66519519 -0.67558396 10.33157466 -1 12 C-1.66 12 -2.32 12 -3 12 C-3.33 8.37 -3.66 4.74 -4 1 C-3.01 1.33 -2.02 1.66 -1 2 C-0.67 1.34 -0.34 0.68 0 0 Z " fill="#EC918D" transform="translate(122,26)"/>
<path d="M0 0 C1.875 0.1875 1.875 0.1875 4 1 C5.25 3.5625 5.25 3.5625 6 6 C5.05125 5.95875 4.1025 5.9175 3.125 5.875 C-0.10244856 5.65026182 -0.10244856 5.65026182 -2 8 C-1.47731534 5.23723823 -0.89130413 2.6739124 0 0 Z " fill="#8590AD" transform="translate(70,65)"/>
<path d="M0 0 C0.66 0.33 1.32 0.66 2 1 C1.50168276 4.68754757 0.89932357 6.60490662 -2 9 C-2.66 7.35 -3.32 5.7 -4 4 C-2.68 2.68 -1.36 1.36 0 0 Z " fill="#475883" transform="translate(117,67)"/>
<path d="M0 0 C0.33 0.66 0.66 1.32 1 2 C1.66 2.309375 2.32 2.61875 3 2.9375 C5 4 5 4 6 7 C6.66 7 7.32 7 8 7 C8 7.99 8 8.98 8 10 C6.02 9.34 4.04 8.68 2 8 C2.66 7.67 3.32 7.34 4 7 C4 6.34 4 5.68 4 5 C3.34 5 2.68 5 2 5 C2 4.34 2 3.68 2 3 C0.68 2.67 -0.64 2.34 -2 2 C-1.34 2 -0.68 2 0 2 C0 1.34 0 0.68 0 0 Z " fill="#EE9894" transform="translate(148,47)"/>
<path d="M0 0 C0.66 1.32 1.32 2.64 2 4 C2.70096688 5.21262154 3.40905907 6.42115859 4.125 7.625 C6 11 6 11 6 13 C3.525 12.01 3.525 12.01 1 11 C0.67 7.37 0.34 3.74 0 0 Z " fill="#E66E68" transform="translate(116,31)"/>
<path d="M0 0 C0.99 0.66 1.98 1.32 3 2 C2.67 4.31 2.34 6.62 2 9 C0.68 9.33 -0.64 9.66 -2 10 C-2.17942163 6.05272412 -2.09350689 3.4019487 0 0 Z " fill="#E87671" transform="translate(116,13)"/>
<path d="M0 0 C0.93065133 2.60582371 1.14917407 3.64198224 0.0625 6.25 C-0.4634375 7.11625 -0.4634375 7.11625 -1 8 C-1.99 8 -2.98 8 -4 8 C-3.50168276 4.31245243 -2.89932357 2.39509338 0 0 Z " fill="#23376A" transform="translate(68,80)"/>
<path d="M0 0 C0.66 0 1.32 0 2 0 C2 0.66 2 1.32 2 2 C2.66 2 3.32 2 4 2 C2.25 5.875 2.25 5.875 0 7 C0 6.34 0 5.68 0 5 C-0.66 5 -1.32 5 -2 5 C-1.34 3.35 -0.68 1.7 0 0 Z " fill="#ED9894" transform="translate(125,21)"/>
<path d="M0 0 C0.66 0.66 1.32 1.32 2 2 C1.625 4.625 1.625 4.625 1 7 C0.01 7.33 -0.98 7.66 -2 8 C-2.33 6.68 -2.66 5.36 -3 4 C-2.34 4 -1.68 4 -1 4 C-0.67 2.68 -0.34 1.36 0 0 Z " fill="#25386B" transform="translate(38,80)"/>
<path d="M0 0 C0.66 0 1.32 0 2 0 C2 0.99 2 1.98 2 3 C3.65 2.34 5.3 1.68 7 1 C6.67 1.99 6.34 2.98 6 4 C3.36 4.33 0.72 4.66 -2 5 C-2 4.34 -2 3.68 -2 3 C-1.34 3 -0.68 3 0 3 C0 2.01 0 1.02 0 0 Z " fill="#E87570" transform="translate(73,47)"/>
<path d="M0 0 C2.79872437 2.52788007 4.45773019 4.20411134 5 8 C3.68 8 2.36 8 1 8 C0 2.25 0 2.25 0 0 Z " fill="#2A3D6F" transform="translate(144,82)"/>
<path d="M0 0 C4.01474237 0 5.81975137 1.66781767 9 4 C9 4.33 9 4.66 9 5 C3.5 5.36666667 3.5 5.36666667 1.125 3.625 C0 2 0 2 0 0 Z " fill="#203468" transform="translate(26,83)"/>
<path d="M0 0 C2.375 0.3125 2.375 0.3125 5 1 C5.66 1.99 6.32 2.98 7 4 C5.1875 4.6875 5.1875 4.6875 3 5 C1.25 3.6875 1.25 3.6875 0 2 C0 1.34 0 0.68 0 0 Z " fill="#283B6D" transform="translate(102,67)"/>
<path d="M0 0 C2.31 0 4.62 0 7 0 C6.67 1.32 6.34 2.64 6 4 C5.01 4 4.02 4 3 4 C3.33 3.67 3.66 3.34 4 3 C2.35 2.67 0.7 2.34 -1 2 C-0.67 1.34 -0.34 0.68 0 0 Z " fill="#808BA9" transform="translate(31,61)"/>
<path d="M0 0 C2.9375 0.8125 2.9375 0.8125 6 2 C6.33 2.99 6.66 3.98 7 5 C6.34 5.66 5.68 6.32 5 7 C3.29115995 5.37660195 1.62553283 3.70680947 0 2 C0 1.34 0 0.68 0 0 Z " fill="#EB8984" transform="translate(92,27)"/>
<path d="M0 0 C0.66 0.33 1.32 0.66 2 1 C1.46930939 4.82097239 0.50298434 7.06171403 -2 10 C-3.39195915 5.82412255 -1.82323219 3.86525224 0 0 Z " fill="#EFA09C" transform="translate(101,25)"/>
<path d="M0 0 C0.66 0 1.32 0 2 0 C2 0.99 2 1.98 2 3 C2.66 3 3.32 3 4 3 C4 3.66 4 4.32 4 5 C3.34 5 2.68 5 2 5 C1.67 5.66 1.34 6.32 1 7 C-0.0625 5.1875 -0.0625 5.1875 -1 3 C-0.67 2.01 -0.34 1.02 0 0 Z " fill="#EE9995" transform="translate(133,30)"/>
<path d="M0 0 C-1.29299694 2.88437779 -2.65941363 4.87219421 -5 7 C-5 3 -5 3 -3.625 1.25 C-2 0 -2 0 0 0 Z " fill="#E25751" transform="translate(11,57)"/>
<path d="M0 0 C-0.33 1.65 -0.66 3.3 -1 5 C-1.99 5 -2.98 5 -4 5 C-4 4.01 -4 3.02 -4 2 C-4.66 1.67 -5.32 1.34 -6 1 C-3 0 -3 0 0 0 Z " fill="#E87671" transform="translate(92,43)"/>
<path d="M0 0 C2.625 0.9375 2.625 0.9375 5 2 C5 2.99 5 3.98 5 5 C2.97954558 4.39816251 0.97888961 3.72693904 -1 3 C-1.33 2.34 -1.66 1.68 -2 1 C-1.34 0.67 -0.68 0.34 0 0 Z " fill="#EA827E" transform="translate(121,37)"/>
<path d="M0 0 C0.66 0 1.32 0 2 0 C2 2.64 2 5.28 2 8 C0.68 6.68 -0.64 5.36 -2 4 C-1.34 3.67 -0.68 3.34 0 3 C0 2.01 0 1.02 0 0 Z " fill="#E97F7B" transform="translate(107,6)"/>
<path d="M0 0 C0.66 0 1.32 0 2 0 C2.68707555 2.49064888 3 4.37886292 3 7 C2.01 6.67 1.02 6.34 0 6 C-0.38218767 4.34385343 -0.71395102 2.67542976 -1 1 C-0.67 0.67 -0.34 0.34 0 0 Z " fill="#EB8A86" transform="translate(6,89)"/>
<path d="M0 0 C0.66 0 1.32 0 2 0 C2.33 1.65 2.66 3.3 3 5 C1.68 5.33 0.36 5.66 -1 6 C-1.042721 4.33388095 -1.04063832 2.66617115 -1 1 C-0.67 0.67 -0.34 0.34 0 0 Z " fill="#293C6F" transform="translate(98,81)"/>
</svg>
